<svg width="1657" height="1080" viewBox="0 0 1657 1080" preserveAspectRatio="xMidYMid slice" fill="none" xmlns="http://www.w3.org/2000/svg">
<path d="M545.603 -11.7812L668.608 232.018L722.349 336.482C727.514 346.533 732.031 356.852 735.876 367.385L748.141 401.103L761.195 442.322C765.014 454.458 767.941 466.812 769.956 479.303L774.425 505.775C776.251 517.004 777.346 528.322 777.701 539.669L782.958 711.537L787.584 785.227C788.355 797.725 790.23 810.146 793.191 822.368V822.368C796.501 836.085 800.959 849.55 806.525 862.644L826.991 910.998L844.513 956.568L846.809 963.398C854.384 985.983 857.632 1009.59 856.411 1033.18L853.923 1080.75" stroke="#00A8E2" stroke-opacity="0.38" stroke-width="2" stroke-miterlimit="10"/>
<path d="M627.362 -11.7812L626.276 -10.7895C619.796 -4.86146 614.716 2.2152 611.347 10.0042L610.366 12.2755C608.684 16.1389 607.433 20.1473 606.633 24.2399L604.461 35.1966C603.781 38.7136 603.441 42.2782 603.444 45.8494C603.441 51.9204 604.427 57.958 606.371 63.7641L612.293 81.4388C614.362 87.5786 616.879 93.5849 619.828 99.4174L678.737 216.79L740.24 327.157C753.664 353.429 762.645 381.409 766.874 410.14L767.014 411.052L769.905 442.754L768.573 471.018" stroke="#00A8E2" stroke-opacity="0.38" stroke-width="2" stroke-miterlimit="10"/>
<path d="M505.811 -11.7812L646.899 247.869L696.224 329.348C702.801 340.193 708.881 351.272 714.465 362.586C723.438 380.771 731.099 399.472 737.401 418.569L739.013 423.464C745.115 442.009 749.92 460.89 753.399 479.991L754.152 484.086C756.897 499.217 758.819 514.434 759.917 529.736L761.179 547.731L772.761 825.135L778.561 851.048C779.524 855.35 780.628 859.621 781.907 863.844L792.298 898.441L809.662 948.026L820.509 985.007L823.277 996.588C829.604 1023.06 831.476 1050.25 828.832 1077.24L828.481 1080.79" stroke="#00A8E2" stroke-opacity="0.38" stroke-width="2" stroke-miterlimit="10"/>
<path d="M668.608 231.586L728.657 325.382L734.527 334.563C740.709 344.247 748.229 353.165 756.903 361.099L762.405 366.122C767.379 370.623 771.521 375.83 774.67 381.541V381.541C779.163 389.8 781.479 398.904 781.434 408.125V420.537L788.67 538.758L799.517 776.542L802.285 803.158C803.331 813.124 805.498 822.965 808.751 832.525L814.007 847.865L844.952 927.329C847.484 933.778 849.407 940.414 850.699 947.163L853.485 961.735C855.539 972.531 856.547 983.471 856.499 994.429L856.323 1032.82" stroke="#00A8E2" stroke-opacity="0.38" stroke-width="2" stroke-miterlimit="10"/>
<path d="M767.657 418.17L1175.8 405.069L1656.57 391M1656.57 496L1619.41 502.704L1597.7 514.605L1525.35 524.506L1072.3 540.469L789.034 547.059" stroke="#00A8E2" stroke-opacity="0.38" stroke-width="2" stroke-miterlimit="10"/>
<path d="M737.405 418.554L320.5 429.222C314.072 429.39 307.695 428.122 301.926 425.526C296.157 422.931 291.171 419.087 287.401 414.331L243.893 359.499L98.4594 232.018C98.4594 232.018 38.6738 178.402 35.5198 174.595C33.3211 171.708 31.5533 168.567 30.2631 165.254C26.9629 157.132 25.3065 148.531 25.3745 139.869V115.109L20.3105 -11.7812" stroke="#00A8E2" stroke-opacity="0.38" stroke-width="2" stroke-miterlimit="10"/>
<path d="M781.482 408.493L785.828 368.073L767.657 -11.7812" stroke="#00A8E2" stroke-opacity="0.38" stroke-width="2" stroke-miterlimit="10"/>
<path d="M489.17 -11.7812V3.09428C489.173 12.9124 491.286 22.6346 495.39 31.7097C497.966 37.388 500.419 42.9063 500.752 43.7861C501.47 45.7695 558.575 123.042 558.575 123.042L580.285 161.431L607.778 198.444L646.852 247.949" stroke="#00A8E2" stroke-opacity="0.38" stroke-width="2" stroke-miterlimit="10"/>
<path d="M230.152 247.868L248.235 243.901L271.382 235.904H297.438L603.497 224.707L778.631 217.445L1234.42 205.545L1473.19 198.315L1505.01 200.282L1528.9 202.906L1553.02 207.432C1555.74 207.944 1558.52 208.201 1561.29 208.2C1568.05 208.2 1574.71 206.679 1580.67 203.769L1656.57 166.5" stroke="#00A8E2" stroke-opacity="0.38" stroke-width="2" stroke-miterlimit="10"/>
<path d="M642.956 831.903L672.095 812.98H757.043" stroke="#00A8E2" stroke-opacity="0.38" stroke-width="2" stroke-miterlimit="10"/>
<path d="M800.445 785.275L817.757 831.901L847.142 912.629L864.909 928.848L886.549 936.798H909.801L1306.43 926.785L1606.8 917.94H1621.01" stroke="#00A8E2" stroke-opacity="0.38" stroke-width="2" stroke-miterlimit="10"/>
<path d="M1621.01 1080.75L1623.58 1051.79L1633.92 1008.74V969.235L1623.58 924.449L1613.89 892.026L1608.73 840.73L1603.47 785.307L1583.46 726.924L1569.25 673.26L1560.19 636.103L1536.94 579.496L1516.93 539.396L1495.6 489.283C1495.6 489.283 1484.62 440.93 1485.26 439.154C1485.91 437.379 1482.04 381.956 1482.04 379.604V296.429C1482.04 294.654 1485.91 218.053 1485.91 218.053L1496.25 151.433C1496.25 151.433 1504.64 107.782 1504 104.839C1503.35 101.896 1494.95 68.2738 1494.95 68.2738L1491.73 -11.7021" stroke="#00A8E2" stroke-opacity="0.38" stroke-width="2" stroke-miterlimit="10"/>
<path d="M1495.04 68.2264L1489.79 115.396L1479.45 167.876L1469.11 210.344L1465.24 245.133V424.983L1474.28 468.17L1489.79 517.579L1514.98 600.754L1536.29 659.729L1549.22 722.238L1571.82 789.418L1581.51 856.054L1591.85 928.032L1601.95 987.358C1602.11 988.295 1602.19 989.242 1602.19 990.19V1015.14C1602.19 1017.2 1601.81 1019.23 1601.07 1021.17C1599.7 1024.8 1597.12 1027.94 1593.7 1030.16C1590.28 1032.39 1586.19 1033.58 1581.99 1033.58H1462C1460.77 1033.58 1459.55 1033.68 1458.35 1033.87L1444.18 1036.19C1441.28 1036.67 1438.53 1037.7 1436.12 1039.23C1433.7 1040.75 1431.67 1042.73 1430.16 1045.04V1045.04C1428.23 1047.96 1427.21 1051.3 1427.21 1054.71V1071.93L1425.29 1080.83L1413.65 822.4L1400.74 427.319L1392.43 186.495C1392.37 184.697 1392.01 182.918 1391.36 181.216L1387.35 170.596C1386.38 168.023 1384.78 165.686 1382.67 163.766V163.766C1380.73 161.992 1378.4 160.61 1375.84 159.709C1373.28 158.808 1370.54 158.408 1367.8 158.535L1318.73 160.791L1261.54 158.983C1250.18 158.638 1238.87 157.569 1227.67 155.784L1214.51 153.689C1190.21 149.806 1166.69 142.619 1144.72 132.367C1126.45 123.842 1107.26 114.772 1106.17 114.245C1104.25 113.061 1035.12 75.8561 1033.18 75.3282C1031.23 74.8004 962.771 41.1145 962.771 41.1145L847.125 -11.7656" stroke="#00A8E2" stroke-opacity="0.38" stroke-width="2" stroke-miterlimit="10"/>
<path d="M898.729 11.8125L905.283 176.723L894.314 192.638L890.424 205.578V226.26L909.803 766.386L923.366 1080.76" stroke="#00A8E2" stroke-opacity="0.38" stroke-width="2" stroke-miterlimit="10"/>
<path d="M574.726 767.648L607.492 749.878L755.326 745.719" stroke="#00A8E2" stroke-opacity="0.38" stroke-width="2" stroke-miterlimit="10"/>
<path d="M797.961 741.625L1235.37 731.612L1549.31 722.175H1581.04C1586.06 722.172 1591 720.964 1595.34 718.672L1595.62 718.528C1601.97 715.183 1606.66 709.745 1608.75 703.332C1610.01 699.435 1610.27 695.322 1609.48 691.32L1608.36 685.546C1607.77 682.473 1606.58 679.521 1604.86 676.828L1601.58 671.774C1598.65 667.262 1595.01 663.17 1590.77 659.634V659.634C1585.32 655.105 1578.22 652.596 1570.85 652.596H1553.88L1453.76 656.722L1077.81 669.695" stroke="#00A8E2" stroke-opacity="0.38" stroke-width="2" stroke-miterlimit="10"/>
<path d="M1391.94 -11.7812V15.5545C1391.94 17.474 1388.44 102.137 1388.44 102.137L1391.94 161.127L1392.43 186.511" stroke="#00A8E2" stroke-opacity="0.38" stroke-width="2" stroke-miterlimit="10"/>
<path d="M1158.01 -11.7812L1169.94 247.069L1180.49 593.381L1187.52 770.368L1198.05 1080.75" stroke="#00A8E2" stroke-opacity="0.38" stroke-width="2" stroke-miterlimit="10"/>
<path d="M1633.92 969.238L1443.93 977.524L1408.8 981.619L863.631 994.191L793.385 998.046H749.825L683.083 1012.15L434.391 1019.85L74.6953 1033.19" stroke="#00A8E2" stroke-opacity="0.38" stroke-width="2" stroke-miterlimit="10"/>
<path d="M699.993 1080.76L676.057 1009.54L650.633 968.133C645.535 959.841 639.415 952.108 632.392 945.084L600.852 913.59L574.674 880.688L239.58 890.285" stroke="#00A8E2" stroke-opacity="0.38" stroke-width="2" stroke-miterlimit="10"/>
<path d="M574.674 880.686L514.415 837.083L492.705 822.4L474.429 797.607L453.929 764.417C450.753 759.266 446.821 754.536 442.241 750.357C435.905 744.572 428.434 739.928 420.216 736.665L314.732 694.886C311.171 693.474 307.33 692.745 303.448 692.743H234.463L88.7314 584.391C88.7314 584.391 1.69871 513.212 0.927734 511.293" stroke="#00A8E2" stroke-opacity="0.38" stroke-width="2" stroke-miterlimit="10"/>
<path d="M1603.58 785.275L1412.62 790.698L1083.66 800.103" stroke="#00A8E2" stroke-opacity="0.38" stroke-width="2" stroke-miterlimit="10"/>
<path d="M1458.37 1033.81L1196.67 1040.24L921.962 1047.96L807.384 1052.06L800.445 1055.9" stroke="#00A8E2" stroke-opacity="0.38" stroke-width="2" stroke-miterlimit="10"/>
<path d="M994.554 -11.7812L1007.52 319.607" stroke="#00A8E2" stroke-opacity="0.38" stroke-width="2" stroke-miterlimit="10"/>
<path d="M178.774 302.412L238.718 298.861L333.355 296.686L653.257 287.76L771.427 283.65L1170.72 273.013L1483.79 262.168" stroke="#00A8E2" stroke-opacity="0.38" stroke-width="2" stroke-miterlimit="10"/>
<path d="M1482.13 327.093L1397.41 330.964" stroke="#00A8E2" stroke-opacity="0.38" stroke-width="2" stroke-miterlimit="10"/>
<path d="M1044.26 340.85H1055.93L1064.17 336.499C1065.5 335.791 1067.01 335.4 1068.55 335.363L1146.73 333.444C1148.7 333.396 1150.64 333.821 1152.37 334.676L1158 337.475H1172.68L1284.42 334.804L1295.72 333.444" stroke="#00A8E2" stroke-opacity="0.38" stroke-width="2" stroke-miterlimit="10"/>
<path d="M1055.93 340.849L1064.15 344.512C1065.49 345.122 1066.98 345.419 1068.48 345.376L1147.98 343.281C1149.69 343.252 1151.37 342.862 1152.89 342.141C1154.41 341.419 1155.73 340.386 1156.74 339.122L1158.07 337.522" stroke="#00A8E2" stroke-opacity="0.38" stroke-width="2" stroke-miterlimit="10"/>
<path d="M683.572 745.719L680.4 615.934L673.163 420.185L670.465 354.173L558.358 356.652L447.005 360.079" stroke="#00A8E2" stroke-opacity="0.38" stroke-width="2" stroke-miterlimit="10"/>
<path d="M764.929 348.799L894.698 345.376" stroke="#00A8E2" stroke-opacity="0.38" stroke-width="2" stroke-miterlimit="10"/>
<path d="M836.401 281.924L839.065 347.088" stroke="#00A8E2" stroke-opacity="0.38" stroke-width="2" stroke-miterlimit="10"/>
<path d="M831.284 359.531V377.286H844.005L843.392 346.735" stroke="#00A8E2" stroke-opacity="0.38" stroke-width="2" stroke-miterlimit="10"/>
<path d="M815.428 384.917L816.987 416.588" stroke="#00A8E2" stroke-opacity="0.38" stroke-width="2" stroke-miterlimit="10"/>
<path d="M783.608 455.741L870.869 454.446L870.256 421.896" stroke="#00A8E2" stroke-opacity="0.38" stroke-width="2" stroke-miterlimit="10"/>
<path d="M969.028 411.708C969.028 411.708 973.286 521.707 973.286 522.075C973.286 522.443 974.39 554.625 974.39 554.625L976.282 607.633" stroke="#00A8E2" stroke-opacity="0.38" stroke-width="2" stroke-miterlimit="10"/>
<path d="M906.472 673.646L997.464 671.79H1003.4C1004.97 671.787 1006.5 672.175 1007.84 672.91V672.91C1008.83 673.459 1009.69 674.187 1010.37 675.051C1011.04 675.915 1011.52 676.895 1011.76 677.932L1012.69 681.803C1012.81 682.287 1012.87 682.78 1012.88 683.275L1013.76 716.289C1013.79 717.3 1013.68 718.31 1013.43 719.296L1012.01 724.718C1011.64 726.121 1010.99 727.45 1010.1 728.637L1008.03 731.42C1007.38 732.303 1006.6 733.099 1005.72 733.787C1004.18 734.984 1002.97 736.492 1002.18 738.192C1001.4 739.892 1001.06 741.736 1001.2 743.576L1004.21 783.82" stroke="#00A8E2" stroke-opacity="0.38" stroke-width="2" stroke-miterlimit="10"/>
<path d="M990.878 752.693H980.207V737.449" stroke="#00A8E2" stroke-opacity="0.38" stroke-width="2" stroke-miterlimit="10"/>
<path d="M995.12 737.115V760.436L990.88 766.035V779.934H982.872V766.179L990.88 766.035" stroke="#00A8E2" stroke-opacity="0.38" stroke-width="2" stroke-miterlimit="10"/>
<path d="M1059.67 735.627V746.968L1055.2 751.046L1055.95 787.963L1048.84 795.993V807.317L1045.86 816.067V844.314" stroke="#00A8E2" stroke-opacity="0.38" stroke-width="2" stroke-miterlimit="10"/>
<path d="M1105.54 799.48L1104.44 770.337L1115.63 769.617" stroke="#00A8E2" stroke-opacity="0.38" stroke-width="2" stroke-miterlimit="10"/>
<path d="M1259.94 795.065L1261.54 820.801C1261.59 821.773 1262.04 822.691 1262.8 823.377L1264.1 824.56C1264.5 824.932 1264.97 825.227 1265.5 825.427C1266.03 825.628 1266.59 825.73 1267.16 825.728H1268.36C1268.99 825.729 1269.62 825.603 1270.19 825.356C1270.77 825.11 1271.28 824.751 1271.68 824.304V824.304C1272.4 823.518 1272.76 822.51 1272.68 821.489L1270.58 794.697" stroke="#00A8E2" stroke-opacity="0.38" stroke-width="2" stroke-miterlimit="10"/>
<path d="M1262.47 794.761V785.276L1260.68 780.973L1259.32 765.49L1257.93 754.229L1256.88 730.54" stroke="#00A8E2" stroke-opacity="0.38" stroke-width="2" stroke-miterlimit="10"/>
<path d="M1267.96 730.54V756.82H1258.25" stroke="#00A8E2" stroke-opacity="0.38" stroke-width="2" stroke-miterlimit="10"/>
<path d="M1259.94 770.689L1299.82 769.249" stroke="#00A8E2" stroke-opacity="0.38" stroke-width="2" stroke-miterlimit="10"/>
<path d="M1284.83 769.792V780.989C1284.82 781.536 1284.7 782.078 1284.48 782.588L1284.36 782.86C1283.92 783.898 1283.08 784.752 1281.99 785.259V785.259C1281.22 785.626 1280.37 785.802 1279.5 785.771L1262.47 785.195" stroke="#00A8E2" stroke-opacity="0.38" stroke-width="2" stroke-miterlimit="10"/>
<path d="M1310.02 739.402L1337.66 738.538L1337.24 728.541" stroke="#00A8E2" stroke-opacity="0.38" stroke-width="2" stroke-miterlimit="10"/>
<path d="M1437.19 790.01L1436.79 785.916C1436.71 785.158 1436.35 784.449 1435.75 783.916C1435.43 783.612 1435.04 783.37 1434.61 783.206C1434.17 783.041 1433.71 782.956 1433.25 782.956H1428.55C1427.73 782.957 1426.93 782.746 1426.23 782.347C1425.54 781.948 1424.98 781.377 1424.63 780.701V780.701C1424.37 780.199 1424.23 779.655 1424.2 779.102L1423.28 735.915H1428.81C1429.74 735.909 1430.66 735.677 1431.46 735.243C1432.63 734.617 1433.49 733.603 1433.86 732.412L1434 731.996C1434.16 731.476 1434.22 730.935 1434.17 730.396L1433.82 725.598" stroke="#00A8E2" stroke-opacity="0.38" stroke-width="2" stroke-miterlimit="10"/>
<path d="M1431.46 735.274L1433.24 782.956" stroke="#00A8E2" stroke-opacity="0.38" stroke-width="2" stroke-miterlimit="10"/>
<path d="M1525.33 787.498L1528.09 851.719L1530.29 920.194" stroke="#00A8E2" stroke-opacity="0.38" stroke-width="2" stroke-miterlimit="10"/>
<path d="M988.985 672.044L989.406 688.039L989.949 709.057L995.206 711.808C995.206 711.808 1001.93 713.839 1001.93 713.264C1001.93 712.688 1001.3 688.039 1001.3 688.039H989.493" stroke="#00A8E2" stroke-opacity="0.38" stroke-width="2" stroke-miterlimit="10"/>
<path d="M803.194 810.019L911.534 806.564" stroke="#00A8E2" stroke-opacity="0.38" stroke-width="2" stroke-miterlimit="10"/>
<path d="M852.927 808.439L851.665 793.228L803.672 793.963" stroke="#00A8E2" stroke-opacity="0.38" stroke-width="2" stroke-miterlimit="10"/>
<path d="M720.04 777.148L725.279 780.62L757.047 779.932" stroke="#00A8E2" stroke-opacity="0.38" stroke-width="2" stroke-miterlimit="10"/>
<path d="M844.359 694.968L846.567 740.506" stroke="#00A8E2" stroke-opacity="0.38" stroke-width="2" stroke-miterlimit="10"/>
<path d="M856.506 740.281L854.684 684.969L851.898 682.426L846.571 679.595H835.952L832.378 676.348L830.871 625.243" stroke="#00A8E2" stroke-opacity="0.38" stroke-width="2" stroke-miterlimit="10"/>
<path d="M845.459 611.935C845.143 611.935 846.563 679.61 846.563 679.61" stroke="#00A8E2" stroke-opacity="0.38" stroke-width="2" stroke-miterlimit="10"/>
<path d="M821.017 625.259H895.328" stroke="#00A8E2" stroke-opacity="0.38" stroke-width="2" stroke-miterlimit="10"/>
<path d="M851.687 611.745L852.282 605.171C852.418 603.908 853.038 602.729 854.034 601.844L856.014 600.052C856.43 599.66 856.916 599.335 857.451 599.092L858.117 598.773C858.984 598.362 859.949 598.155 860.925 598.172C861.901 598.189 862.858 598.428 863.707 598.869V598.869C864.794 599.441 865.653 600.315 866.16 601.364L867.912 605.059C868.105 605.48 868.246 605.92 868.333 606.37L869.156 611.169" stroke="#00A8E2" stroke-opacity="0.38" stroke-width="2" stroke-miterlimit="10"/>
<path d="M789.935 565.693L839.277 564.814L845.988 560.175L854.994 545.523" stroke="#00A8E2" stroke-opacity="0.38" stroke-width="2" stroke-miterlimit="10"/>
<path d="M832.92 593.222C832.447 592.934 828.487 583.369 828.487 583.369L830.713 572.365L839.263 564.879" stroke="#00A8E2" stroke-opacity="0.38" stroke-width="2" stroke-miterlimit="10"/>
<path d="M898.821 544.501L891.356 550.323L892.303 571.053L895.089 574.812L902.973 575.964" stroke="#00A8E2" stroke-opacity="0.38" stroke-width="2" stroke-miterlimit="10"/>
<path d="M898.323 446.275C898.323 446.419 959.301 444.819 959.301 444.819" stroke="#00A8E2" stroke-opacity="0.38" stroke-width="2" stroke-miterlimit="10"/>
<path d="M928.814 413.003V424.807L914.551 425.367C914.223 425.386 913.898 425.445 913.587 425.543V425.543C913.051 425.718 912.573 426.016 912.198 426.408C911.824 426.8 911.566 427.273 911.45 427.783L911.274 428.518C911.248 428.758 911.248 428.999 911.274 429.238L912.518 461.708C912.533 462.039 912.591 462.367 912.694 462.684L913.184 464.284C913.375 464.907 913.725 465.481 914.207 465.956C914.688 466.432 915.287 466.796 915.953 467.019V467.019C916.515 467.202 917.109 467.289 917.705 467.275L955.606 465.467C956.606 465.414 957.546 465.01 958.228 464.339C958.911 463.669 959.283 462.783 959.268 461.868L958.549 428.374C958.566 428.145 958.566 427.916 958.549 427.687V427.687C958.345 426.692 957.757 425.797 956.893 425.163C956.028 424.529 954.944 424.199 953.836 424.232L947.826 424.408L928.919 424.839" stroke="#00A8E2" stroke-opacity="0.38" stroke-width="2" stroke-miterlimit="10"/>
<path d="M911.208 435.541L958.658 434.661" stroke="#00A8E2" stroke-opacity="0.38" stroke-width="2" stroke-miterlimit="10"/>
<path d="M912.225 455.759C912.225 455.407 959.307 454.671 959.307 454.671" stroke="#00A8E2" stroke-opacity="0.38" stroke-width="2" stroke-miterlimit="10"/>
<path d="M899.462 477.863L971.513 475.976" stroke="#00A8E2" stroke-opacity="0.38" stroke-width="2" stroke-miterlimit="10"/>
<path d="M932.478 412.986V401.47H906.896" stroke="#00A8E2" stroke-opacity="0.38" stroke-width="2" stroke-miterlimit="10"/>
<path d="M1006 542.004L1001.24 410.668L999.8 402.206L998.17 369.736C998.104 368.106 997.358 366.562 996.085 365.417V365.417C995.398 364.789 994.576 364.297 993.672 363.969C992.768 363.642 991.801 363.487 990.829 363.514L946.795 364.569C945.725 364.584 944.681 364.872 943.782 365.401V365.401C942.897 365.906 942.174 366.616 941.688 367.459C941.202 368.302 940.969 369.248 941.013 370.2L942.941 412.619" stroke="#00A8E2" stroke-opacity="0.38" stroke-width="2" stroke-miterlimit="10"/>
<path d="M941.289 375.976C941.99 375.689 998.394 374.377 998.394 374.377" stroke="#00A8E2" stroke-opacity="0.38" stroke-width="2" stroke-miterlimit="10"/>
<path d="M1043.84 355.101H1066.62L1072.3 357.42V370.136C1072.3 370.824 1072.47 371.503 1072.81 372.119L1073.67 373.639C1074.06 374.344 1074.67 374.935 1075.41 375.348C1076.15 375.76 1077 375.977 1077.87 375.974V375.974C1078.54 375.973 1079.2 375.84 1079.8 375.586C1080.4 375.333 1080.94 374.963 1081.38 374.503C1081.71 374.119 1081.96 373.751 1081.9 373.511C1081.75 372.775 1081.9 357.132 1081.9 357.132L1072.23 357.42" stroke="#00A8E2" stroke-opacity="0.38" stroke-width="2" stroke-miterlimit="10"/>
<path d="M1173.21 354.383L1145.18 354.911L1135.19 355.103L1135.98 373.081C1135.98 373.081 1145.83 373.369 1145.83 373.081C1145.83 372.793 1145.18 354.911 1145.18 354.911" stroke="#00A8E2" stroke-opacity="0.38" stroke-width="2" stroke-miterlimit="10"/>
<path d="M1145.49 362.634H1173.21" stroke="#00A8E2" stroke-opacity="0.38" stroke-width="2" stroke-miterlimit="10"/>
<path d="M1141.41 405.391L1142.36 416.843L1139.43 435.318C1139.27 436.335 1139.22 437.363 1139.27 438.389L1140.73 466.012C1140.76 466.562 1140.9 467.103 1141.13 467.612V467.612C1141.5 468.384 1142.1 469.047 1142.86 469.524C1143.63 470.002 1144.52 470.276 1145.44 470.315L1166.29 471.291C1166.95 471.325 1167.61 471.416 1168.26 471.563V471.563C1170.01 471.984 1171.61 472.843 1172.86 474.042L1176.96 477.993" stroke="#00A8E2" stroke-opacity="0.38" stroke-width="2" stroke-miterlimit="10"/>
<path d="M1189.68 450.752L1188.09 415.963H1203.33V404.238" stroke="#00A8E2" stroke-opacity="0.38" stroke-width="2" stroke-miterlimit="10"/>
<path d="M1222.54 403.663L1223.34 417.563L1212.55 446.258V463.357" stroke="#00A8E2" stroke-opacity="0.38" stroke-width="2" stroke-miterlimit="10"/>
<path d="M1178.05 513.662H1216.98V522.491L1178.38 524.379" stroke="#00A8E2" stroke-opacity="0.38" stroke-width="2" stroke-miterlimit="10"/>
<path d="M1195.71 523.529L1196.34 536.118" stroke="#00A8E2" stroke-opacity="0.38" stroke-width="2" stroke-miterlimit="10"/>
<path d="M1242.39 509.167L1243.25 534.487" stroke="#00A8E2" stroke-opacity="0.38" stroke-width="2" stroke-miterlimit="10"/>
<path d="M1268.9 521.82H1276.21L1275.32 505.681" stroke="#00A8E2" stroke-opacity="0.38" stroke-width="2" stroke-miterlimit="10"/>
<path d="M1276.2 511.487H1290.68" stroke="#00A8E2" stroke-opacity="0.38" stroke-width="2" stroke-miterlimit="10"/>
<path d="M1290.6 509.164L1376.7 508.317C1377.53 508.311 1378.35 508.497 1379.08 508.858C1379.81 509.218 1380.42 509.742 1380.87 510.38C1381.36 511.1 1381.62 511.931 1381.62 512.779V519.737" stroke="#00A8E2" stroke-opacity="0.38" stroke-width="2" stroke-miterlimit="10"/>
<path d="M1302.88 509.164V517.066C1302.88 517.961 1303.16 518.838 1303.68 519.593C1304.17 520.266 1304.84 520.816 1305.63 521.19C1306.41 521.565 1307.28 521.753 1308.17 521.736L1366.83 519.849C1367.89 519.812 1368.93 519.519 1369.82 518.999C1370.72 518.479 1371.45 517.751 1371.93 516.89V516.89C1372.44 515.987 1372.66 514.973 1372.56 513.963L1372.07 508.316" stroke="#00A8E2" stroke-opacity="0.38" stroke-width="2" stroke-miterlimit="10"/>
<path d="M1365.75 459.743L1393.38 463.358L1405.14 462.638L1472.83 460.751" stroke="#00A8E2" stroke-opacity="0.38" stroke-width="2" stroke-miterlimit="10"/>
<path d="M1433.22 461.854L1430.23 397.457" stroke="#00A8E2" stroke-opacity="0.38" stroke-width="2" stroke-miterlimit="10"/>
<path d="M1400.98 434.79L1455.14 433.511" stroke="#00A8E2" stroke-opacity="0.38" stroke-width="2" stroke-miterlimit="10"/>
<path d="M1408.94 443.505L1455.15 442.642" stroke="#00A8E2" stroke-opacity="0.38" stroke-width="2" stroke-miterlimit="10"/>
<path d="M1408.94 453.072L1455.15 452.496" stroke="#00A8E2" stroke-opacity="0.38" stroke-width="2" stroke-miterlimit="10"/>
<path d="M1412.27 403.358L1413.24 423.8L1455.15 422.777" stroke="#00A8E2" stroke-opacity="0.38" stroke-width="2" stroke-miterlimit="10"/>
<path d="M1451.02 401.901L1451.96 422.855" stroke="#00A8E2" stroke-opacity="0.38" stroke-width="2" stroke-miterlimit="10"/>
<path d="M1441.18 401.901L1442.13 423.095" stroke="#00A8E2" stroke-opacity="0.38" stroke-width="2" stroke-miterlimit="10"/>
<path d="M1420.05 403.326C1419.89 404.062 1421.01 423.768 1421.01 423.768" stroke="#00A8E2" stroke-opacity="0.38" stroke-width="2" stroke-miterlimit="10"/>
<path d="M1437.5 329.141V335.683L1447.68 342.337" stroke="#00A8E2" stroke-opacity="0.38" stroke-width="2" stroke-miterlimit="10"/>
<path d="M1368.13 282.307V266.184" stroke="#00A8E2" stroke-opacity="0.38" stroke-width="2" stroke-miterlimit="10"/>
<path d="M1393.94 230.161L1280.85 233.92L1275.32 235.232L1103.14 240.446H1084.73L1061.88 237.695L1034.56 239.006" stroke="#00A8E2" stroke-opacity="0.38" stroke-width="2" stroke-miterlimit="10"/>
<path d="M1155.55 260.971V248.799H1169.99" stroke="#00A8E2" stroke-opacity="0.38" stroke-width="2" stroke-miterlimit="10"/>
<path d="M1170.08 251.484L1183.6 250.524C1184.57 250.454 1185.54 250.576 1186.45 250.883C1187.35 251.189 1188.18 251.673 1188.86 252.3V252.3C1189.48 252.862 1189.98 253.532 1190.32 254.271C1190.65 255.01 1190.82 255.802 1190.82 256.603V272.326" stroke="#00A8E2" stroke-opacity="0.38" stroke-width="2" stroke-miterlimit="10"/>
<path d="M1190.79 259.755L1222.7 258.38C1223.34 258.344 1223.99 258.434 1224.59 258.643C1225.2 258.853 1225.75 259.177 1226.2 259.595C1226.98 260.313 1227.44 261.261 1227.52 262.267L1228.15 271.032" stroke="#00A8E2" stroke-opacity="0.38" stroke-width="2" stroke-miterlimit="10"/>
<path d="M1242.39 247.564C1242.39 247.996 1243.65 257.162 1243.65 257.162L1250.66 263.464L1251.19 270.262" stroke="#00A8E2" stroke-opacity="0.38" stroke-width="2" stroke-miterlimit="10"/>
<path d="M1186.83 237.919V206.84" stroke="#00A8E2" stroke-opacity="0.38" stroke-width="2" stroke-miterlimit="10"/>
<path d="M1208.11 206.281V231.33H1186.83" stroke="#00A8E2" stroke-opacity="0.38" stroke-width="2" stroke-miterlimit="10"/>
<path d="M1186.83 214.808H1208.11" stroke="#00A8E2" stroke-opacity="0.38" stroke-width="2" stroke-miterlimit="10"/>
<path d="M1197.47 214.808L1198.04 231.906" stroke="#00A8E2" stroke-opacity="0.38" stroke-width="2" stroke-miterlimit="10"/>
<path d="M1216.35 164.646L1219.54 205.977" stroke="#00A8E2" stroke-opacity="0.38" stroke-width="2" stroke-miterlimit="10"/>
<path d="M1129.2 182.768L1217.51 179.569" stroke="#00A8E2" stroke-opacity="0.38" stroke-width="2" stroke-miterlimit="10"/>
<path d="M1179.2 159.864L1180.43 180.914" stroke="#00A8E2" stroke-opacity="0.38" stroke-width="2" stroke-miterlimit="10"/>
<path d="M1190.79 162.055C1191.26 162.487 1192.07 180.497 1192.07 180.497" stroke="#00A8E2" stroke-opacity="0.38" stroke-width="2" stroke-miterlimit="10"/>
<path d="M1192.07 170.388H1208.73" stroke="#00A8E2" stroke-opacity="0.38" stroke-width="2" stroke-miterlimit="10"/>
<path d="M1279.1 184.353L1363.54 182.77V201.676" stroke="#00A8E2" stroke-opacity="0.38" stroke-width="2" stroke-miterlimit="10"/>
<path d="M1363.54 182.77V176.739C1363.54 175.595 1363.04 174.498 1362.16 173.684V173.684C1361.65 173.219 1361.03 172.867 1360.34 172.656C1359.66 172.445 1358.93 172.381 1358.22 172.469L1309.56 178.131H1291.33V192.191L1363.58 191.135" stroke="#00A8E2" stroke-opacity="0.38" stroke-width="2" stroke-miterlimit="10"/>
<path d="M1329.25 202.729L1330.11 219.523C1330.16 220.516 1330.5 221.48 1331.07 222.323V222.323C1331.67 223.206 1332.52 223.927 1333.53 224.411C1334.53 224.895 1335.67 225.124 1336.8 225.074L1393.94 222.627" stroke="#00A8E2" stroke-opacity="0.38" stroke-width="2" stroke-miterlimit="10"/>
<path d="M1381.94 230.563L1382.92 265.673" stroke="#00A8E2" stroke-opacity="0.38" stroke-width="2" stroke-miterlimit="10"/>
<path d="M1343.53 267.032V260.458L1339.72 254.076V243.647V231.971" stroke="#00A8E2" stroke-opacity="0.38" stroke-width="2" stroke-miterlimit="10"/>
<path d="M1339.73 254.075L1319.4 254.651V243.646H1339.73" stroke="#00A8E2" stroke-opacity="0.38" stroke-width="2" stroke-miterlimit="10"/>
<path d="M1331.95 232.228V243.648" stroke="#00A8E2" stroke-opacity="0.38" stroke-width="2" stroke-miterlimit="10"/>
<path d="M1281.14 241.758L1294.63 243.645" stroke="#00A8E2" stroke-opacity="0.38" stroke-width="2" stroke-miterlimit="10"/>
<path d="M1201.42 336.785L1200.79 327.092H1185.71V299.58L1189.03 287.407H1205.56L1226.99 285.808L1262.87 281.025H1270.34L1271.28 325.38L1264.29 325.956" stroke="#00A8E2" stroke-opacity="0.38" stroke-width="2" stroke-miterlimit="10"/>
<path d="M1264.61 335.284L1262.87 281.044" stroke="#00A8E2" stroke-opacity="0.38" stroke-width="2" stroke-miterlimit="10"/>
<path d="M1219.05 336.355V325.382L1225.55 325.206L1240.48 324.806L1239.53 304.956L1225.55 305.468L1212.22 305.964V325.526L1219.05 325.382" stroke="#00A8E2" stroke-opacity="0.38" stroke-width="2" stroke-miterlimit="10"/>
<path d="M1225.55 325.208V305.47" stroke="#00A8E2" stroke-opacity="0.38" stroke-width="2" stroke-miterlimit="10"/>
<path d="M1205.56 287.408V271.797" stroke="#00A8E2" stroke-opacity="0.38" stroke-width="2" stroke-miterlimit="10"/>
<path d="M1105.6 539.285L1106.75 551.841H1095.61C1095 551.839 1094.4 551.947 1093.84 552.158C1093.27 552.37 1092.76 552.68 1092.33 553.073V553.073C1091.91 553.464 1091.57 553.928 1091.33 554.438C1091.1 554.949 1090.98 555.496 1090.98 556.048V569.516" stroke="#00A8E2" stroke-opacity="0.38" stroke-width="2" stroke-miterlimit="10"/>
<path d="M1145 537.927L1146.58 564.815" stroke="#00A8E2" stroke-opacity="0.38" stroke-width="2" stroke-miterlimit="10"/>
<path d="M1145.63 548.755H1123.38L1124.51 565.694L1149.29 564.814L1153.79 566.653L1155.39 601.923" stroke="#00A8E2" stroke-opacity="0.38" stroke-width="2" stroke-miterlimit="10"/>
<path d="M1208.52 536.12L1211.24 600.165" stroke="#00A8E2" stroke-opacity="0.38" stroke-width="2" stroke-miterlimit="10"/>
<path d="M1210.24 576.524L1191.19 577.34L1192.09 589.481L1210.73 588.249" stroke="#00A8E2" stroke-opacity="0.38" stroke-width="2" stroke-miterlimit="10"/>
<path d="M1292.64 566.639H1322.04V597.909" stroke="#00A8E2" stroke-opacity="0.38" stroke-width="2" stroke-miterlimit="10"/>
<path d="M1292.11 551.379C1292.11 551.043 1324.75 551.379 1324.75 551.379" stroke="#00A8E2" stroke-opacity="0.38" stroke-width="2" stroke-miterlimit="10"/>
<path d="M1372.62 595.477C1372.5 595.477 1374.76 634.713 1374.76 634.713" stroke="#00A8E2" stroke-opacity="0.38" stroke-width="2" stroke-miterlimit="10"/>
<path d="M1453.59 527.13L1455.15 540.326L1459.44 551.363L1464.1 555.617L1465.31 591.814" stroke="#00A8E2" stroke-opacity="0.38" stroke-width="2" stroke-miterlimit="10"/>
<path d="M1474.08 539.717L1419.24 541.572V569.26C1419.24 570.123 1419.36 570.982 1419.59 571.819V572.011C1420 573.425 1420.74 574.74 1421.77 575.867C1422.79 576.994 1424.07 577.905 1425.51 578.537V578.537C1427.12 579.24 1428.88 579.58 1430.66 579.529L1486.58 577.753L1474.08 539.717Z" stroke="#00A8E2" stroke-opacity="0.38" stroke-width="2" stroke-miterlimit="10"/>
<path d="M1419.29 552.882L1477.89 551.219" stroke="#00A8E2" stroke-opacity="0.38" stroke-width="2" stroke-miterlimit="10"/>
<path d="M1419.29 566.637L1482.13 563.981" stroke="#00A8E2" stroke-opacity="0.38" stroke-width="2" stroke-miterlimit="10"/>
<path d="M1438.27 592.981V658.146" stroke="#00A8E2" stroke-opacity="0.38" stroke-width="2" stroke-miterlimit="10"/>
<path d="M1492.37 525.771C1492.37 525.771 1499.76 537.671 1499.99 538.279C1500.22 538.887 1508.61 552.083 1508.61 552.083L1511.45 558.113C1512.11 559.502 1513.05 560.766 1514.22 561.84C1515.43 562.951 1516.88 563.833 1518.47 564.434C1520.06 565.035 1521.76 565.344 1523.49 565.343H1525.06L1530.63 566.542" stroke="#00A8E2" stroke-opacity="0.38" stroke-width="2" stroke-miterlimit="10"/>
<path d="M1556.74 519.74C1556.74 519.74 1563.94 507.615 1563.94 506.703V484.198" stroke="#00A8E2" stroke-opacity="0.38" stroke-width="2" stroke-miterlimit="10"/>
<path d="M1586.79 516.189C1587.14 515.053 1597.74 500.866 1597.74 500.866V483.383" stroke="#00A8E2" stroke-opacity="0.38" stroke-width="2" stroke-miterlimit="10"/>
<path d="M1563.96 503.52L1655.68 495.986" stroke="#00A8E2" stroke-opacity="0.38" stroke-width="2" stroke-miterlimit="10"/>
<path d="M1641.67 497.138L1640.76 480.503" stroke="#00A8E2" stroke-opacity="0.38" stroke-width="2" stroke-miterlimit="10"/>
<path d="M593.696 225.106L640.077 288.112" stroke="#00A8E2" stroke-opacity="0.38" stroke-width="2" stroke-miterlimit="10"/>
<path d="M552.118 226.627L564.384 554.417L567.345 684.713L532.581 702.116" stroke="#00A8E2" stroke-opacity="0.38" stroke-width="2" stroke-miterlimit="10"/>
<path d="M734.302 284.961V265.943C734.299 265.124 734.497 264.315 734.88 263.575L735.879 261.688C736.328 260.837 737.012 260.107 737.862 259.569C738.713 259.03 739.702 258.702 740.732 258.617V258.617C741.618 258.534 742.513 258.635 743.351 258.912C744.188 259.189 744.946 259.635 745.569 260.216L745.954 260.568C747.062 261.585 747.69 262.957 747.706 264.391V275.588L758.833 273.892L760.69 266.454L780.928 264.695" stroke="#00A8E2" stroke-opacity="0.38" stroke-width="2" stroke-miterlimit="10"/>
<path d="M734.302 292.863L751.736 320.647H783.557" stroke="#00A8E2" stroke-opacity="0.38" stroke-width="2" stroke-miterlimit="10"/>
<path d="M764.929 303.388H782.731" stroke="#00A8E2" stroke-opacity="0.38" stroke-width="2" stroke-miterlimit="10"/>
<path d="M795.132 297.261V283.025" stroke="#00A8E2" stroke-opacity="0.38" stroke-width="2" stroke-miterlimit="10"/>
<path d="M808.122 297.261C807.753 294.894 808.122 283.025 808.122 283.025" stroke="#00A8E2" stroke-opacity="0.38" stroke-width="2" stroke-miterlimit="10"/>
<path d="M821.488 295.567V282.323" stroke="#00A8E2" stroke-opacity="0.38" stroke-width="2" stroke-miterlimit="10"/>
<path d="M863.786 281.044L866.011 345.377" stroke="#00A8E2" stroke-opacity="0.38" stroke-width="2" stroke-miterlimit="10"/>
<path d="M839.066 329.445H847.144L864.894 336.355H880.103L884.098 340.018" stroke="#00A8E2" stroke-opacity="0.38" stroke-width="2" stroke-miterlimit="10"/>
<path d="M815.428 347.086V337.137L821.49 336.354" stroke="#00A8E2" stroke-opacity="0.38" stroke-width="2" stroke-miterlimit="10"/>
<path d="M919.685 279.605L921.664 329.447" stroke="#00A8E2" stroke-opacity="0.38" stroke-width="2" stroke-miterlimit="10"/>
<path d="M920.945 311.483L953.887 310.235" stroke="#00A8E2" stroke-opacity="0.38" stroke-width="2" stroke-miterlimit="10"/>
<path d="M946.142 213.126L949.138 278.914" stroke="#00A8E2" stroke-opacity="0.38" stroke-width="2" stroke-miterlimit="10"/>
<path d="M1105.65 305.47L1110.22 301.295V294.081L1106.98 291.122V282.293L1109.92 279.605L1109.7 274.631" stroke="#00A8E2" stroke-opacity="0.38" stroke-width="2" stroke-miterlimit="10"/>
<path d="M1109.92 279.605L1112.87 282.293L1113.34 291.026L1110.22 294.081" stroke="#00A8E2" stroke-opacity="0.38" stroke-width="2" stroke-miterlimit="10"/>
<path d="M1752.02 506.703H1687.91L1597.64 514.701L1593.38 518.204L1558.02 534.487C1558.02 534.487 1546.23 552.385 1545.63 552.881L1573.02 540.725L1594.04 539.717L1631 536.358" stroke="#00A8E2" stroke-opacity="0.38" stroke-width="2" stroke-miterlimit="10"/>
<path d="M1569.54 518.493C1571.02 518.285 1630.08 536.088 1631.08 536.296H1656.57" stroke="#00A8E2" stroke-opacity="0.38" stroke-width="2" stroke-miterlimit="10"/>
<path d="M1573.02 540.711L1579.56 543.462L1581.06 551.22V554.259" stroke="#00A8E2" stroke-opacity="0.38" stroke-width="2" stroke-miterlimit="10"/>
<path d="M1639.63 536.584V624.062L1637.37 629.58L1632.12 631.42L1606.97 629.58H1602.29L1597.67 633.707L1594.9 641.976V658.179L1603.66 672.271L1624.69 708.069L1643.7 721.329C1645.93 722.879 1653.87 725.299 1656.57 726" stroke="#00A8E2" stroke-opacity="0.38" stroke-width="2" stroke-miterlimit="10"/>
<path d="M1639.65 549.171H1589.42L1585.35 552.866" stroke="#00A8E2" stroke-opacity="0.38" stroke-width="2" stroke-miterlimit="10"/>
<path d="M1640.76 543.285C1641.46 543.653 1656.57 543.285 1656.57 543.285" stroke="#00A8E2" stroke-opacity="0.38" stroke-width="2" stroke-miterlimit="10"/>
<path d="M1544 652.996L1522.97 595.637V590.759L1527.46 586.664L1533.45 590.759L1552.41 638.201L1558.09 652.596C1558.09 652.596 1565.67 695.223 1565.67 695.783C1565.67 696.343 1568.23 708.483 1568.23 708.483L1566.09 712.386H1559.08L1555.58 709.187L1545.77 664.561L1548.9 656.051L1550.39 652.676" stroke="#00A8E2" stroke-opacity="0.38" stroke-width="2" stroke-miterlimit="10"/>
<path d="M1585.35 625.563V646.197L1579.85 653.891" stroke="#00A8E2" stroke-opacity="0.38" stroke-width="2" stroke-miterlimit="10"/>
<path d="M1592.55 626.684C1592.76 627.467 1594.88 658.146 1594.88 658.146" stroke="#00A8E2" stroke-opacity="0.38" stroke-width="2" stroke-miterlimit="10"/>
<path d="M1593.71 719.471C1595.34 718.671 1604.75 714.752 1604.96 714.16C1607.76 712.004 1610.68 709.986 1613.72 708.114H1619.71L1626.89 709.714" stroke="#00A8E2" stroke-opacity="0.38" stroke-width="2" stroke-miterlimit="10"/>
<path d="M1478.1 655.714L1480.95 682.746C1481.06 683.737 1481.53 684.665 1482.3 685.37L1482.67 685.721C1483.35 686.335 1484.21 686.747 1485.15 686.904C1486.09 687.061 1487.06 686.955 1487.93 686.601C1488.77 686.265 1489.48 685.711 1489.97 685.009C1490.47 684.306 1490.73 683.486 1490.71 682.65C1490.71 679.835 1490.71 675.836 1490.71 675.101C1491.17 671.502 1490.71 655.187 1490.71 655.187" stroke="#00A8E2" stroke-opacity="0.38" stroke-width="2" stroke-miterlimit="10"/>
<path d="M1484.51 694.822C1485.17 695.414 1486.02 724.077 1486.02 724.077" stroke="#00A8E2" stroke-opacity="0.38" stroke-width="2" stroke-miterlimit="10"/>
<path d="M1564.75 722.159L1561.33 727.63L1575.67 770.193L1578.66 777.231L1583.36 778.782L1588.49 776.255L1589.56 770.593L1573.74 725.63L1569.94 722.159" stroke="#00A8E2" stroke-opacity="0.38" stroke-width="2" stroke-miterlimit="10"/>
<path d="M1583.35 778.78L1584.63 785.818" stroke="#00A8E2" stroke-opacity="0.38" stroke-width="2" stroke-miterlimit="10"/>
<path d="M1588.28 785.819L1583.35 792.681L1589.55 841.067L1592.66 843.898H1598.54L1602.28 839.707L1595.76 789.13L1594.88 785.275" stroke="#00A8E2" stroke-opacity="0.38" stroke-width="2" stroke-miterlimit="10"/>
<path d="M1590.63 850.376L1593.84 884.621L1597.04 905.319L1601.44 909.318L1610.96 907.718V902.056L1605.38 894.442C1605.38 894.442 1603.47 870.45 1603.47 869.842C1603.47 869.234 1602.28 849.848 1602.28 849.848" stroke="#00A8E2" stroke-opacity="0.38" stroke-width="2" stroke-miterlimit="10"/>
<path d="M1616.28 970.006L1612.65 963.32L1607.74 954.33C1607.74 954.33 1602.15 928.946 1602.28 928.354C1602.4 927.762 1605.64 925.283 1605.64 925.283L1612.02 923.684L1616.28 930.082L1621.01 952.347C1621.01 952.347 1622.5 958.601 1622.76 959.177C1623.02 959.753 1618.7 969.974 1618.7 969.974L1622.78 977.971L1624.9 1015.46L1633.01 1012.74L1640.53 1020.26L1656.57 1022.5" stroke="#00A8E2" stroke-opacity="0.38" stroke-width="2" stroke-miterlimit="10"/>
<path d="M1630.1 1024.68L1667.85 1028.32L1730.09 1026.5L1762.98 1023.48" stroke="#00A8E2" stroke-opacity="0.38" stroke-width="2" stroke-miterlimit="10"/>
<path d="M1644.57 1026L1647.1 1032.77L1652.44 1036L1655.44 1031L1656.57 1028.1" stroke="#00A8E2" stroke-opacity="0.38" stroke-width="2" stroke-miterlimit="10"/>
<path d="M1608.81 1080.75C1608.81 1080.75 1613.51 1065.05 1613.3 1064.46C1613.09 1063.86 1608.81 1042.19 1608.81 1042.19L1598.75 1032.05L1594.69 1028.34" stroke="#00A8E2" stroke-opacity="0.38" stroke-width="2" stroke-miterlimit="10"/>
<path d="M1506.99 1080.76L1504.21 962.135L1502.05 921.027" stroke="#00A8E2" stroke-opacity="0.38" stroke-width="2" stroke-miterlimit="10"/>
<path d="M1350.01 792.488L1351.27 812.962H1396.83V806.404L1393.2 802.805H1371.16L1354.48 803.669V817.137L1358.34 820.656H1396.88V812.962" stroke="#00A8E2" stroke-opacity="0.38" stroke-width="2" stroke-miterlimit="10"/>
<path d="M1373.42 857.589C1373.73 856.517 1373.42 825.807 1373.42 825.807H1383.35L1385.28 857.125" stroke="#00A8E2" stroke-opacity="0.38" stroke-width="2" stroke-miterlimit="10"/>
<path d="M1379.36 982.354V1025.96L1370.6 1026.13" stroke="#00A8E2" stroke-opacity="0.38" stroke-width="2" stroke-miterlimit="10"/>
<path d="M1370.53 1035.74L1368.81 992.203H1379.36" stroke="#00A8E2" stroke-opacity="0.38" stroke-width="2" stroke-miterlimit="10"/>
<path d="M1073.88 825.791L1083.66 829.982L1088.65 843.914V861.044L1081.25 868.306" stroke="#00A8E2" stroke-opacity="0.38" stroke-width="2" stroke-miterlimit="10"/>
<path d="M1150.25 865.269C1150.25 865.269 1146.55 814.996 1148.39 812.981C1149.69 811.63 1151.08 810.344 1152.53 809.126C1153.16 808.594 1154 808.312 1154.86 808.342C1155.7 808.367 1156.51 808.691 1157.09 809.247C1157.68 809.802 1158.01 810.544 1158.01 811.317V828.8L1159.92 865.589" stroke="#00A8E2" stroke-opacity="0.38" stroke-width="2" stroke-miterlimit="10"/>
<path d="M1154.85 799.174V808.339" stroke="#00A8E2" stroke-opacity="0.38" stroke-width="2" stroke-miterlimit="10"/>
<path d="M1139.11 866.355V836.987L1116.35 838.443V855.766H1129.16H1139.11" stroke="#00A8E2" stroke-opacity="0.38" stroke-width="2" stroke-miterlimit="10"/>
<path d="M1129.18 838.124L1129.17 855.767" stroke="#00A8E2" stroke-opacity="0.38" stroke-width="2" stroke-miterlimit="10"/>
<path d="M1149.5 854.614L1159.35 854.07" stroke="#00A8E2" stroke-opacity="0.38" stroke-width="2" stroke-miterlimit="10"/>
<path d="M1118.86 867.026L1121.06 931.471" stroke="#00A8E2" stroke-opacity="0.38" stroke-width="2" stroke-miterlimit="10"/>
<path d="M1119.84 895.403H1127.73L1130.92 892.556L1129.18 871.618L1139.12 871.09L1141.1 891.804L1130.92 892.556" stroke="#00A8E2" stroke-opacity="0.38" stroke-width="2" stroke-miterlimit="10"/>
<path d="M1115.16 931.615L1118.18 983.552L1115.16 983.872V975.842L1110.42 972.771L1108.68 971.507L1107.65 943.916H1115.88" stroke="#00A8E2" stroke-opacity="0.38" stroke-width="2" stroke-miterlimit="10"/>
<path d="M1164.94 987.248L1166.12 1018.21L1114.46 1020.12L1113.65 999.932H1123.15L1125.01 996.029L1124.31 988.176" stroke="#00A8E2" stroke-opacity="0.38" stroke-width="2" stroke-miterlimit="10"/>
<path d="M1120.03 988.287L1120.72 999.932" stroke="#00A8E2" stroke-opacity="0.38" stroke-width="2" stroke-miterlimit="10"/>
<path d="M1123.15 999.932L1124.43 1019.75" stroke="#00A8E2" stroke-opacity="0.38" stroke-width="2" stroke-miterlimit="10"/>
<path d="M1144.92 994.861L1146.07 1018.97" stroke="#00A8E2" stroke-opacity="0.38" stroke-width="2" stroke-miterlimit="10"/>
<path d="M1155.11 988.287L1156.49 1018.58" stroke="#00A8E2" stroke-opacity="0.38" stroke-width="2" stroke-miterlimit="10"/>
<path d="M1195.62 1009.54L1192.38 1021.65L1187.58 1026.03L1173.56 1030.21L1134.09 1031.38H1086.32L1054.47 1023.38L996.134 1009.54L980.557 1005.91C977.518 1005.21 974.416 1004.76 971.288 1004.57L957.866 1003.82C955.591 1003.67 953.307 1003.67 951.032 1003.82L932.108 1005.11L910.451 1007.22L900.936 1007.8C897.95 1007.98 894.952 1007.9 891.983 1007.56L888.653 1007.18C883.385 1006.58 878.265 1005.18 873.514 1003.02L859.269 996.619L847.196 985.422C841.657 980.302 837.421 974.131 834.79 967.348L815.516 917.619L796.399 872.16L787.813 841.769C787.064 839.099 786.618 836.366 786.482 833.612L785.045 802.645C784.822 798.016 784.934 793.378 785.378 788.761L786.832 773.71" stroke="#00A8E2" stroke-opacity="0.38" stroke-width="2" stroke-miterlimit="10"/>
<path d="M319.003 562.013L746.071 549.089" stroke="#00A8E2" stroke-opacity="0.38" stroke-width="2" stroke-miterlimit="10"/>
<path d="M732.743 481.767L158.717 501.457" stroke="#00A8E2" stroke-opacity="0.38" stroke-width="2" stroke-miterlimit="10"/>
<path d="M896.139 964.053L894.614 936.797" stroke="#00A8E2" stroke-opacity="0.38" stroke-width="2" stroke-miterlimit="10"/>
<path d="M903.759 947.34L904.775 961.496H918.232" stroke="#00A8E2" stroke-opacity="0.38" stroke-width="2" stroke-miterlimit="10"/>
<path d="M996.275 934.621L997.555 947.337L1001.37 966.611V980.063H1015.09L1017.13 1085.42" stroke="#00A8E2" stroke-opacity="0.38" stroke-width="2" stroke-miterlimit="10"/>
<path d="M1001.38 969.238H1023.75" stroke="#00A8E2" stroke-opacity="0.38" stroke-width="2" stroke-miterlimit="10"/>
<path d="M1040.01 933.52L1041.29 976.579L1044.34 983.872L1045.86 989.999" stroke="#00A8E2" stroke-opacity="0.38" stroke-width="2" stroke-miterlimit="10"/>
<path d="M1049.15 933.52L1050.43 989.983" stroke="#00A8E2" stroke-opacity="0.38" stroke-width="2" stroke-miterlimit="10"/>
<path d="M1019.93 895.402C1020.68 894.666 1059.6 893.979 1059.6 893.979" stroke="#00A8E2" stroke-opacity="0.38" stroke-width="2" stroke-miterlimit="10"/>
<path d="M1042.93 869.588V894.332" stroke="#00A8E2" stroke-opacity="0.38" stroke-width="2" stroke-miterlimit="10"/>
<path d="M1197.43 1062.67L1266.26 1060.36L1268.8 1056.87V1048.75V1016.97H1257.09V1038.75" stroke="#00A8E2" stroke-opacity="0.38" stroke-width="2" stroke-miterlimit="10"/>
<path d="M1214.65 1062.09C1214.42 1062.09 1210.73 1058.51 1210.73 1058.51V1052.01L1216.18 1050L1290.15 1048.53L1293.45 1051.55L1294.47 1080.76" stroke="#00A8E2" stroke-opacity="0.38" stroke-width="2" stroke-miterlimit="10"/>
<path d="M1283.8 1048.53L1280.63 1051.42L1282.22 1080.76" stroke="#00A8E2" stroke-opacity="0.38" stroke-width="2" stroke-miterlimit="10"/>
<path d="M1268.8 1056.88V1071.27L1273.9 1075.91H1283.8" stroke="#00A8E2" stroke-opacity="0.38" stroke-width="2" stroke-miterlimit="10"/>
<path d="M1086.33 1031.43L1078.13 1035.06L1054.5 1031.43L1004.68 1019.76L972.633 1012.09L945.439 1010.02L930.702 1012.09L899.688 1020.12L884.689 1028.8L871.46 1038.78L846.053 1066.85L841.462 1080.75" stroke="#00A8E2" stroke-opacity="0.38" stroke-width="2" stroke-miterlimit="10"/>
<path d="M884.697 1028.8L906.898 1021.83L926.645 1016.97H942.398L958.168 1020.12L998.066 1034.83L1035.2 1054.09L1069.26 1066.39L1099.5 1068.95L1170.17 1078.45L1192.54 1083.11" stroke="#00A8E2" stroke-opacity="0.38" stroke-width="2" stroke-miterlimit="10"/>
<path d="M972.636 1012.09L1009.26 1028.34L1044.34 1048.52L1071.02 1062.66L1099.5 1068.95" stroke="#00A8E2" stroke-opacity="0.38" stroke-width="2" stroke-miterlimit="10"/>
<path d="M1118.18 1082.18L1053.75 1068.95L1012.55 1050.03L982.556 1037.84L949.772 1029.73L928.675 1026.95L903.758 1025.78L875.285 1021.83L853.172 1012.09L836.386 991.199L823.682 961.496L780.069 857.159" stroke="#00A8E2" stroke-opacity="0.38" stroke-width="2" stroke-miterlimit="10"/>
<path d="M866.382 1080.75C866.645 1078.93 880.119 1058.97 880.119 1058.97L893.576 1045.39L910.993 1036.93L928.41 1033.73L962.228 1038.93L996.274 1054.47L1036.07 1070.47L1059.6 1078.83L1076.88 1085.33" stroke="#00A8E2" stroke-opacity="0.38" stroke-width="2" stroke-miterlimit="10"/>
<path d="M828.285 1026.98C828.285 1026.98 816.615 1002.99 816.142 999.947C815.669 996.908 790.823 927.264 789.982 926.097C789.141 924.929 772.67 877.199 771.846 875.664C771.023 874.128 757.04 829.47 757.04 829.47" stroke="#00A8E2" stroke-opacity="0.38" stroke-width="2" stroke-miterlimit="10"/>
<path d="M820.352 1059.61L817.408 1031.38L800.447 979.169L784.94 936.75L771.43 894.635L770.677 872.273" stroke="#00A8E2" stroke-opacity="0.38" stroke-width="2" stroke-miterlimit="10"/>
<path d="M691.283 890.316L704.425 884.046C705.523 883.523 706.691 883.043 707.929 882.606C714.699 880.111 722.101 879.407 729.289 880.575V880.575C730.112 880.703 730.918 880.863 731.724 881.055L747.389 884.558L760.461 890.348L803.18 888.428L835.526 880.719C835.806 881.487 866.452 874.321 866.452 874.321L1018.19 870.466L1190.7 864.676L1439.01 855.078L1609.66 849.832" stroke="#00A8E2" stroke-opacity="0.38" stroke-width="2" stroke-miterlimit="10"/>
<path d="M716.983 923.235H751.607L866.448 874.273" stroke="#00A8E2" stroke-opacity="0.38" stroke-width="2" stroke-miterlimit="10"/>
<path d="M721.507 943.883L849.261 940.636L886.548 936.797V964.053" stroke="#00A8E2" stroke-opacity="0.38" stroke-width="2" stroke-miterlimit="10"/>
<path d="M735.968 881.966L734.321 846.937L723.352 844.314L722.651 821.104" stroke="#00A8E2" stroke-opacity="0.38" stroke-width="2" stroke-miterlimit="10"/>
<path d="M711.961 812.978L714.747 816.577C716.202 818.447 718.279 819.838 720.67 820.544L723.315 821.311C725.797 822.041 728.474 821.991 730.92 821.167V821.167C732.508 820.622 733.947 819.767 735.137 818.662C736.326 817.557 737.237 816.229 737.806 814.769L738.542 812.914" stroke="#00A8E2" stroke-opacity="0.38" stroke-width="2" stroke-miterlimit="10"/>
<path d="M660.529 851.543L681.293 838.171C681.827 837.81 682.418 837.524 683.045 837.323L683.361 837.227C684.896 836.765 686.558 836.794 688.074 837.307V837.307C688.697 837.511 689.286 837.791 689.826 838.139L692.84 840.17L694.172 842.698L673.461 857.093" stroke="#00A8E2" stroke-opacity="0.38" stroke-width="2" stroke-miterlimit="10"/>
<path d="M692.825 840.156L702.182 839.756" stroke="#00A8E2" stroke-opacity="0.38" stroke-width="2" stroke-miterlimit="10"/>
<path d="M669.624 845.676L658.638 831.904L664.14 828.673L674.705 842.413" stroke="#00A8E2" stroke-opacity="0.38" stroke-width="2" stroke-miterlimit="10"/>
<path d="M614.66 719.105L615.098 727.343C615.098 727.343 618.883 731.806 618.883 732.142V750.04" stroke="#00A8E2" stroke-opacity="0.38" stroke-width="2" stroke-miterlimit="10"/>
<path d="M707.754 728.045L708.42 747.031" stroke="#00A8E2" stroke-opacity="0.38" stroke-width="2" stroke-miterlimit="10"/>
<path d="M712.872 705.477H732.584L740.925 709.043H754.014" stroke="#00A8E2" stroke-opacity="0.38" stroke-width="2" stroke-miterlimit="10"/>
<path d="M752.939 679.564L569.885 684.955L554.746 683.323L533.264 683.835L525.572 684.955L519.299 690.681" stroke="#00A8E2" stroke-opacity="0.38" stroke-width="2" stroke-miterlimit="10"/>
<path d="M636.125 683.003L637.036 708.419L611.874 709.955" stroke="#00A8E2" stroke-opacity="0.38" stroke-width="2" stroke-miterlimit="10"/>
<path d="M474.045 680.619L481.825 668.574L485.382 622.236" stroke="#00A8E2" stroke-opacity="0.38" stroke-width="2" stroke-miterlimit="10"/>
<path d="M510.87 621.421V644.598L512.097 647.429L566.433 645.062" stroke="#00A8E2" stroke-opacity="0.38" stroke-width="2" stroke-miterlimit="10"/>
<path d="M510.87 635.033L555.306 633.913V645.558" stroke="#00A8E2" stroke-opacity="0.38" stroke-width="2" stroke-miterlimit="10"/>
<path d="M537.264 659.425H566.771" stroke="#00A8E2" stroke-opacity="0.38" stroke-width="2" stroke-miterlimit="10"/>
<path d="M503.202 659.938L498.717 684.331" stroke="#00A8E2" stroke-opacity="0.38" stroke-width="2" stroke-miterlimit="10"/>
<path d="M566.773 651.907L592.163 652.323L595.282 654.243V661.968" stroke="#00A8E2" stroke-opacity="0.38" stroke-width="2" stroke-miterlimit="10"/>
<path d="M566.084 629.642L586.602 628.635L587.268 618.941" stroke="#00A8E2" stroke-opacity="0.38" stroke-width="2" stroke-miterlimit="10"/>
<path d="M751.559 641.032L709.857 642.567L707.754 615.056" stroke="#00A8E2" stroke-opacity="0.38" stroke-width="2" stroke-miterlimit="10"/>
<path d="M680.073 607.281L686.486 604.242H713.102L715.485 606.418V614.799" stroke="#00A8E2" stroke-opacity="0.38" stroke-width="2" stroke-miterlimit="10"/>
<path d="M714.207 605.25L718.833 601.044H737.354L736.705 584.217" stroke="#00A8E2" stroke-opacity="0.38" stroke-width="2" stroke-miterlimit="10"/>
<path d="M626.114 552.082C626.114 552.706 627.569 582.169 627.569 582.169" stroke="#00A8E2" stroke-opacity="0.38" stroke-width="2" stroke-miterlimit="10"/>
<path d="M679.1 581.049H668.131C666.353 581.053 664.585 581.279 662.874 581.721C661.663 582.028 660.489 582.446 659.37 582.968L652.624 586.056C650.131 587.19 647.384 587.781 644.599 587.783H633.069C631.628 587.783 630.192 587.622 628.794 587.303L622.924 585.992C620.689 585.495 618.38 585.338 616.09 585.528V585.528C615.212 585.606 614.326 585.53 613.479 585.304L612.638 585.096L612.2 584.952L604.035 582.281C603.837 582.224 603.644 582.154 603.457 582.073L601.582 581.273C600.162 580.68 598.569 580.522 597.044 580.825V580.825C595.326 581.177 593.81 582.094 592.786 583.4L592.488 583.784C592.261 584.074 592.009 584.347 591.734 584.6L591.542 584.776C590.58 585.651 589.364 586.256 588.037 586.519L580.222 588.119C579.753 588.216 579.295 588.356 578.855 588.535L575.579 589.894L565.241 590.406L542.111 592.838L534.279 591.782C532.497 591.539 530.739 591.165 529.022 590.662L517.055 587.079C515.968 586.759 514.864 586.487 513.743 586.263L506.559 584.888C505.271 584.633 503.965 584.456 502.652 584.36V584.36C497.799 583.991 492.918 584.648 488.388 586.279L483.552 588.087L472.531 591.734L460.721 594.581L455.832 593.877H453.765" stroke="#00A8E2" stroke-opacity="0.38" stroke-width="2" stroke-miterlimit="10"/>
<path d="M587.985 586.52C589.332 586.279 590.697 586.13 592.068 586.072C592.784 586.027 593.502 586.148 594.153 586.424L595.117 586.856C595.446 586.998 595.793 587.1 596.151 587.16L596.817 587.272C597.474 587.384 598.151 587.348 598.789 587.167C599.427 586.986 600.007 586.665 600.479 586.232C600.653 586.075 600.84 585.931 601.039 585.801L605.683 582.857" stroke="#00A8E2" stroke-opacity="0.38" stroke-width="2" stroke-miterlimit="10"/>
<path d="M612.097 584.953C613.337 585.952 614.507 587.02 615.601 588.152L618.948 591.191L623.293 590.663L626.92 589.56L628.76 587.352" stroke="#00A8E2" stroke-opacity="0.38" stroke-width="2" stroke-miterlimit="10"/>
<path d="M537.263 567.759C537.157 568.159 537.263 592.215 537.263 592.215" stroke="#00A8E2" stroke-opacity="0.38" stroke-width="2" stroke-miterlimit="10"/>
<path d="M456.202 677.949L447.005 358.708" stroke="#00A8E2" stroke-opacity="0.38" stroke-width="2" stroke-miterlimit="10"/>
<path d="M740.841 516.446L676.762 517.502" stroke="#00A8E2" stroke-opacity="0.38" stroke-width="2" stroke-miterlimit="10"/>
<path d="M631.073 485.253V511.789C631.084 512.987 631.605 514.135 632.528 514.988V514.988C633.022 515.438 633.615 515.788 634.266 516.017C634.918 516.245 635.615 516.347 636.312 516.316L676.753 514.604" stroke="#00A8E2" stroke-opacity="0.38" stroke-width="2" stroke-miterlimit="10"/>
<path d="M631.073 492.802H662.911C663.302 492.802 663.691 492.851 664.068 492.946L664.803 493.138C665.7 493.37 666.489 493.863 667.052 494.541C667.614 495.219 667.92 496.046 667.922 496.897V496.897C667.922 497.932 668.373 498.924 669.175 499.656C669.976 500.388 671.064 500.799 672.198 500.799H676.14" stroke="#00A8E2" stroke-opacity="0.38" stroke-width="2" stroke-miterlimit="10"/>
<path d="M656.661 515.484V495.266L658.519 489.956V484.31" stroke="#00A8E2" stroke-opacity="0.38" stroke-width="2" stroke-miterlimit="10"/>
<path d="M644.164 484.31V492.803" stroke="#00A8E2" stroke-opacity="0.38" stroke-width="2" stroke-miterlimit="10"/>
<path d="M593.458 486.548V493.362H608.614" stroke="#00A8E2" stroke-opacity="0.38" stroke-width="2" stroke-miterlimit="10"/>
<path d="M598.19 421.911V425.718C598.182 427.194 598.811 428.613 599.942 429.669C600.533 430.201 601.238 430.618 602.012 430.893C602.787 431.168 603.615 431.296 604.445 431.268L641.837 430.277" stroke="#00A8E2" stroke-opacity="0.38" stroke-width="2" stroke-miterlimit="10"/>
<path d="M656.661 442.516L659.57 438.405C660.475 437.125 661.668 436.035 663.07 435.208C664.471 434.381 666.05 433.835 667.7 433.607L673.64 432.791" stroke="#00A8E2" stroke-opacity="0.38" stroke-width="2" stroke-miterlimit="10"/>
<path d="M673.642 435.862L684.716 434.726L686.696 419.835" stroke="#00A8E2" stroke-opacity="0.38" stroke-width="2" stroke-miterlimit="10"/>
<path d="M689.492 394.673C689.685 395.441 689.492 419.849 689.492 419.849" stroke="#00A8E2" stroke-opacity="0.38" stroke-width="2" stroke-miterlimit="10"/>
<path d="M671.358 375.879H683.571" stroke="#00A8E2" stroke-opacity="0.38" stroke-width="2" stroke-miterlimit="10"/>
<path d="M649.982 412.139L647.284 354.685" stroke="#00A8E2" stroke-opacity="0.38" stroke-width="2" stroke-miterlimit="10"/>
<path d="M642.714 297.264C642.083 297.264 634.811 297.264 634.811 297.264L632.498 293.889V288.946" stroke="#00A8E2" stroke-opacity="0.38" stroke-width="2" stroke-miterlimit="10"/>
<path d="M553.369 259.752L595.51 258.584L600.819 253.738L613.961 252.618" stroke="#00A8E2" stroke-opacity="0.38" stroke-width="2" stroke-miterlimit="10"/>
<path d="M553.036 250.97H579.46C580.49 250.968 581.502 250.728 582.403 250.272C583.304 249.816 584.064 249.159 584.611 248.363V248.363C585.213 247.479 585.534 246.46 585.54 245.42V239.806" stroke="#00A8E2" stroke-opacity="0.38" stroke-width="2" stroke-miterlimit="10"/>
<path d="M585.532 235.055V225.106" stroke="#00A8E2" stroke-opacity="0.38" stroke-width="2" stroke-miterlimit="10"/>
<path d="M746.567 588.5L743.567 540.5" stroke="#00A8E2" stroke-opacity="0.38" stroke-width="2.02267" stroke-miterlimit="10"/>
<path d="M330.677 627.258L750.578 613.678L757.044 793.528V824.478C757.042 828.59 756.537 832.689 755.537 836.699L755.309 837.61C754.309 841.62 753.803 845.719 753.802 849.831V897.816C753.799 902.488 752.139 907.033 749.072 910.772C745.869 914.697 741.305 917.516 736.123 918.77L716.988 923.345L464.424 950.361L325.543 958.022L130.451 963.333" stroke="#00A8E2" stroke-opacity="0.38" stroke-width="2" stroke-miterlimit="10"/>
<path d="M1311.6 1080.75L1300.62 791.546L1278.84 177.17L1275.31 70.0662V-11.7812" stroke="#00A8E2" stroke-opacity="0.38" stroke-width="2" stroke-miterlimit="10"/>
<path d="M1064.1 1043.97L1059.6 910.151V859.479L1067.26 837.277C1067.26 837.277 1078.1 818.691 1078.1 817.971C1078.1 817.251 1083.66 804.215 1083.66 804.215L1081.8 735.132L1076.54 602.692C1076.54 602.692 1074.44 522.332 1074.44 521.612C1074.44 520.892 1072.32 499.891 1071.65 499.219C1070.99 498.547 1059.63 474.362 1059.63 474.362C1059.63 474.362 1048.26 444.195 1048.26 443.46C1048.26 442.724 1045.88 415.948 1045.88 415.948L1043.23 335.828L1040.76 284.867L1035.51 262.906L1031.53 166.375L1028.2 73.0107" stroke="#00A8E2" stroke-opacity="0.38" stroke-width="2" stroke-miterlimit="10"/>
<path d="M792.128 613.663L1017.81 606.353L1198.05 600.547L1397.41 594.757L1511.76 589.798L1530.56 566.477L1538.91 558.736C1556.11 542.788 1577.17 530.736 1600.39 523.546C1606.74 521.566 1613.23 519.963 1619.81 518.748L1643.46 514.381" stroke="#00A8E2" stroke-opacity="0.38" stroke-width="2" stroke-miterlimit="10"/>
<path d="M772.286 812.98L766.364 840.172V872.626C766.364 877.937 766.591 883.263 767.047 888.621C768.564 906.329 772.593 923.781 779.032 940.542L782.817 950.395L803.178 1003.4L813.183 1029.25L820.35 1059.64L817.756 1080.79L745.407 976.931L721.507 943.965L688.565 885.502L651.103 840.108L620.089 808.853L581.33 776.415L561.302 749.879L535.422 706.308C533.318 702.748 530.656 699.488 527.519 696.631C520.718 690.421 511.954 686.315 502.462 684.89L398.135 669.231C394.962 668.78 391.829 668.117 388.761 667.248L374.218 662.977C364.305 660.079 355.294 655.061 347.934 648.341L337.158 638.456L325.541 618.398" stroke="#00A8E2" stroke-opacity="0.38" stroke-width="2" stroke-miterlimit="10"/>
<path d="M750.577 613.664L746.057 549.091C745.39 539.367 743.937 529.701 741.711 520.172L720.79 430.599C720.088 427.549 719.181 424.541 718.074 421.594L707.981 394.658L683.678 336.627C681.804 332.129 679.573 327.761 677.002 323.559L646.899 274.166L600.851 208.777L560.655 147.404L533.495 102.873L505.81 60.7899L481.805 29.9192C476.465 22.9985 470.548 16.4637 464.108 10.3731L445.797 -6.88574" stroke="#00A8E2" stroke-opacity="0.38" stroke-width="2" stroke-miterlimit="10"/>
</svg>
